<mxfile host="app.diagrams.net" agent="Mozilla/5.0 (Macintosh; Intel Mac OS X 10_15_7) AppleWebKit/537.36 (KHTML, like Gecko) Chrome/129.0.0.0 Safari/537.36" version="24.8.2">
  <diagram name="Page-1" id="iPw8mFsBWlkknBxN7S-U">
    <mxGraphModel dx="1194" dy="615" grid="1" gridSize="10" guides="1" tooltips="1" connect="1" arrows="1" fold="1" page="1" pageScale="1" pageWidth="850" pageHeight="1100" math="0" shadow="0">
      <root>
        <mxCell id="0" />
        <mxCell id="1" parent="0" />
        <mxCell id="f7VWtB84ozHV4lPgb3XU-72" value="" style="rounded=0;whiteSpace=wrap;html=1;" parent="1" vertex="1">
          <mxGeometry x="37.5" y="263" width="140" height="177" as="geometry" />
        </mxCell>
        <mxCell id="f7VWtB84ozHV4lPgb3XU-71" value="" style="rounded=0;whiteSpace=wrap;html=1;" parent="1" vertex="1">
          <mxGeometry x="620" y="264" width="160" height="197" as="geometry" />
        </mxCell>
        <mxCell id="f7VWtB84ozHV4lPgb3XU-9" value="" style="rounded=0;whiteSpace=wrap;html=1;" parent="1" vertex="1">
          <mxGeometry x="200" y="80" width="400" height="360" as="geometry" />
        </mxCell>
        <mxCell id="f7VWtB84ozHV4lPgb3XU-44" value="" style="endArrow=none;dashed=1;html=1;rounded=0;" parent="1" edge="1">
          <mxGeometry width="50" height="50" relative="1" as="geometry">
            <mxPoint x="200" y="270" as="sourcePoint" />
            <mxPoint x="600" y="269" as="targetPoint" />
          </mxGeometry>
        </mxCell>
        <mxCell id="f7VWtB84ozHV4lPgb3XU-1" value="&lt;b&gt;Control Unit&lt;/b&gt;&lt;br&gt;(Raspberry&lt;br&gt;Pi 5)" style="whiteSpace=wrap;html=1;movable=1;resizable=1;rotatable=1;deletable=1;editable=1;locked=0;connectable=1;" parent="1" vertex="1">
          <mxGeometry x="200" y="80" width="400" height="80" as="geometry" />
        </mxCell>
        <mxCell id="f7VWtB84ozHV4lPgb3XU-3" value="&lt;b&gt;Processing&lt;/b&gt;&lt;div&gt;&lt;b&gt;Unit&lt;/b&gt;&lt;/div&gt;&lt;div&gt;(xcore.ai)&lt;/div&gt;" style="whiteSpace=wrap;html=1;" parent="1" vertex="1">
          <mxGeometry x="200" y="360" width="400" height="80" as="geometry" />
        </mxCell>
        <mxCell id="f7VWtB84ozHV4lPgb3XU-6" value="&lt;b&gt;I2C&lt;/b&gt;&lt;div&gt;Bi-directional&lt;br&gt;state&lt;br&gt;synchronization&lt;/div&gt;" style="shape=flexArrow;endArrow=classic;startArrow=classic;html=1;rounded=0;exitX=0.5;exitY=0;exitDx=0;exitDy=0;fillColor=#FFFFFF;entryX=0.5;entryY=1;entryDx=0;entryDy=0;" parent="1" edge="1">
          <mxGeometry x="-0.0016" width="100" height="100" relative="1" as="geometry">
            <mxPoint x="440" y="360" as="sourcePoint" />
            <mxPoint x="440" y="160" as="targetPoint" />
            <Array as="points" />
            <mxPoint as="offset" />
          </mxGeometry>
        </mxCell>
        <mxCell id="f7VWtB84ozHV4lPgb3XU-11" value="&lt;b&gt;USB&lt;/b&gt;&lt;br&gt;Audio interface" style="shape=flexArrow;endArrow=classic;startArrow=classic;html=1;rounded=0;" parent="1" edge="1">
          <mxGeometry width="100" height="100" relative="1" as="geometry">
            <mxPoint x="370" y="520" as="sourcePoint" />
            <mxPoint x="370" y="440" as="targetPoint" />
          </mxGeometry>
        </mxCell>
        <mxCell id="f7VWtB84ozHV4lPgb3XU-12" value="&lt;b&gt;Analog&lt;/b&gt;&lt;br&gt;Audio&lt;br&gt;I/O" style="shape=flexArrow;endArrow=classic;startArrow=classic;html=1;rounded=0;" parent="1" edge="1">
          <mxGeometry width="100" height="100" relative="1" as="geometry">
            <mxPoint x="430" y="520" as="sourcePoint" />
            <mxPoint x="430" y="440" as="targetPoint" />
          </mxGeometry>
        </mxCell>
        <mxCell id="f7VWtB84ozHV4lPgb3XU-20" value="&lt;b&gt;WiFi Direct&lt;/b&gt;&lt;br&gt;Remote&lt;b&gt; &lt;/b&gt;GUI" style="shape=flexArrow;endArrow=classic;startArrow=classic;html=1;rounded=0;" parent="1" edge="1">
          <mxGeometry width="100" height="100" relative="1" as="geometry">
            <mxPoint x="600" y="119.66" as="sourcePoint" />
            <mxPoint x="720" y="119.66" as="targetPoint" />
            <mxPoint as="offset" />
          </mxGeometry>
        </mxCell>
        <mxCell id="f7VWtB84ozHV4lPgb3XU-23" value="&lt;b&gt;GPIO&lt;/b&gt;&lt;br&gt;Touchscreen&lt;br&gt;GUI" style="shape=flexArrow;endArrow=classic;startArrow=classic;html=1;rounded=0;" parent="1" edge="1">
          <mxGeometry width="100" height="100" relative="1" as="geometry">
            <mxPoint x="80" y="119.66" as="sourcePoint" />
            <mxPoint x="200" y="119.66" as="targetPoint" />
          </mxGeometry>
        </mxCell>
        <mxCell id="f7VWtB84ozHV4lPgb3XU-26" value="" style="shape=image;imageAspect=0;aspect=fixed;verticalLabelPosition=bottom;verticalAlign=top;image=https://png.pngtree.com/png-clipart/20230818/original/pngtree-touch-screen-icon-on-white-background-picture-image_8008644.png;" parent="1" vertex="1">
          <mxGeometry x="40" y="100" width="40" height="40" as="geometry" />
        </mxCell>
        <mxCell id="f7VWtB84ozHV4lPgb3XU-27" value="" style="shape=image;imageAspect=0;aspect=fixed;verticalLabelPosition=bottom;verticalAlign=top;image=https://images-wixmp-ed30a86b8c4ca887773594c2.wixmp.com/f/fd5829ed-efc1-4ca8-813f-8e31e4df26af/deis5c8-5b152a39-d7c5-48ca-8f46-457dedd08b89.png?token=eyJ0eXAiOiJKV1QiLCJhbGciOiJIUzI1NiJ9.eyJzdWIiOiJ1cm46YXBwOjdlMGQxODg5ODIyNjQzNzNhNWYwZDQxNWVhMGQyNmUwIiwiaXNzIjoidXJuOmFwcDo3ZTBkMTg4OTgyMjY0MzczYTVmMGQ0MTVlYTBkMjZlMCIsIm9iaiI6W1t7InBhdGgiOiJcL2ZcL2ZkNTgyOWVkLWVmYzEtNGNhOC04MTNmLThlMzFlNGRmMjZhZlwvZGVpczVjOC01YjE1MmEzOS1kN2M1LTQ4Y2EtOGY0Ni00NTdkZWRkMDhiODkucG5nIn1dXSwiYXVkIjpbInVybjpzZXJ2aWNlOmZpbGUuZG93bmxvYWQiXX0.x1k5DJDcYcoVa5HS6QVFHuJ6baGCyKgDP5dfoc-Dfa0;" parent="1" vertex="1">
          <mxGeometry x="410" y="532" width="36.04" height="28" as="geometry" />
        </mxCell>
        <mxCell id="f7VWtB84ozHV4lPgb3XU-28" value="" style="shape=image;imageAspect=0;aspect=fixed;verticalLabelPosition=bottom;verticalAlign=top;image=https://t4.ftcdn.net/jpg/06/16/63/87/360_F_616638761_ePK1FxzEFNwbGeZc7Hw5rp7cbnzVrVv6.jpg;" parent="1" vertex="1">
          <mxGeometry x="725.35" y="107.5" width="34.65" height="25" as="geometry" />
        </mxCell>
        <mxCell id="f7VWtB84ozHV4lPgb3XU-30" value="Central State&lt;br&gt;Module" style="rounded=1;whiteSpace=wrap;html=1;strokeColor=#FF0800;" parent="1" vertex="1">
          <mxGeometry x="220" y="90" width="120" height="60" as="geometry" />
        </mxCell>
        <mxCell id="f7VWtB84ozHV4lPgb3XU-31" value="Wireless&lt;br&gt;Communications&lt;br&gt;Module" style="rounded=1;whiteSpace=wrap;html=1;strokeColor=#2200FF;" parent="1" vertex="1">
          <mxGeometry x="460" y="90" width="120" height="60" as="geometry" />
        </mxCell>
        <mxCell id="f7VWtB84ozHV4lPgb3XU-32" value="Onboard GUI&lt;br&gt;Module" style="rounded=1;whiteSpace=wrap;html=1;strokeColor=#FF1100;" parent="1" vertex="1">
          <mxGeometry x="210" y="180" width="120" height="60" as="geometry" />
        </mxCell>
        <mxCell id="f7VWtB84ozHV4lPgb3XU-33" value="Tablet GUI&lt;br&gt;Module" style="rounded=1;whiteSpace=wrap;html=1;strokeColor=#FF0000;" parent="1" vertex="1">
          <mxGeometry x="475" y="180" width="120" height="60" as="geometry" />
        </mxCell>
        <mxCell id="f7VWtB84ozHV4lPgb3XU-34" value="Neural Mix&lt;br&gt;Module" style="rounded=1;whiteSpace=wrap;html=1;strokeColor=#43FF36;" parent="1" vertex="1">
          <mxGeometry x="220" y="370" width="90" height="60" as="geometry" />
        </mxCell>
        <mxCell id="f7VWtB84ozHV4lPgb3XU-35" value="DSP&lt;br&gt;Module" style="rounded=1;whiteSpace=wrap;html=1;strokeColor=#EFFF0D;" parent="1" vertex="1">
          <mxGeometry x="475" y="369" width="90" height="60" as="geometry" />
        </mxCell>
        <mxCell id="f7VWtB84ozHV4lPgb3XU-36" value="Digital&lt;br&gt;Audio Interface&lt;br&gt;Module" style="rounded=1;whiteSpace=wrap;html=1;strokeColor=#FFFF00;" parent="1" vertex="1">
          <mxGeometry x="470" y="287.5" width="120" height="60" as="geometry" />
        </mxCell>
        <mxCell id="f7VWtB84ozHV4lPgb3XU-39" value="" style="endArrow=none;dashed=1;html=1;rounded=0;" parent="1" target="f7VWtB84ozHV4lPgb3XU-9" edge="1">
          <mxGeometry width="50" height="50" relative="1" as="geometry">
            <mxPoint x="200" y="270" as="sourcePoint" />
            <mxPoint x="250" y="220" as="targetPoint" />
          </mxGeometry>
        </mxCell>
        <mxCell id="f7VWtB84ozHV4lPgb3XU-47" value="&lt;h1 style=&quot;margin-top: 0px;&quot;&gt;Key&lt;/h1&gt;" style="text;html=1;whiteSpace=wrap;overflow=hidden;rounded=0;" parent="1" vertex="1">
          <mxGeometry x="82.5" y="262.5" width="50" height="40" as="geometry" />
        </mxCell>
        <mxCell id="f7VWtB84ozHV4lPgb3XU-48" value="" style="rounded=1;whiteSpace=wrap;html=1;" parent="1" vertex="1">
          <mxGeometry x="52.5" y="387.5" width="40" height="30" as="geometry" />
        </mxCell>
        <mxCell id="f7VWtB84ozHV4lPgb3XU-50" value="Software&lt;br&gt;module" style="text;strokeColor=none;fillColor=none;align=left;verticalAlign=middle;spacingLeft=4;spacingRight=4;overflow=hidden;points=[[0,0.5],[1,0.5]];portConstraint=eastwest;rotatable=0;whiteSpace=wrap;html=1;" parent="1" vertex="1">
          <mxGeometry x="102.5" y="387.5" width="80" height="30" as="geometry" />
        </mxCell>
        <mxCell id="f7VWtB84ozHV4lPgb3XU-51" value="" style="shape=flexArrow;endArrow=classic;html=1;rounded=0;" parent="1" edge="1">
          <mxGeometry width="50" height="50" relative="1" as="geometry">
            <mxPoint x="52.5" y="362.5" as="sourcePoint" />
            <mxPoint x="92.5" y="362.5" as="targetPoint" />
          </mxGeometry>
        </mxCell>
        <mxCell id="f7VWtB84ozHV4lPgb3XU-52" value="Hardware&lt;br&gt;connection" style="text;strokeColor=none;fillColor=none;align=left;verticalAlign=middle;spacingLeft=4;spacingRight=4;overflow=hidden;points=[[0,0.5],[1,0.5]];portConstraint=eastwest;rotatable=0;whiteSpace=wrap;html=1;" parent="1" vertex="1">
          <mxGeometry x="102.5" y="347.5" width="80" height="30" as="geometry" />
        </mxCell>
        <mxCell id="f7VWtB84ozHV4lPgb3XU-53" value="" style="rounded=0;whiteSpace=wrap;html=1;" parent="1" vertex="1">
          <mxGeometry x="52.5" y="307.5" width="40" height="30" as="geometry" />
        </mxCell>
        <mxCell id="f7VWtB84ozHV4lPgb3XU-54" value="Hardware&lt;br&gt;module" style="text;strokeColor=none;fillColor=none;align=left;verticalAlign=middle;spacingLeft=4;spacingRight=4;overflow=hidden;points=[[0,0.5],[1,0.5]];portConstraint=eastwest;rotatable=0;whiteSpace=wrap;html=1;" parent="1" vertex="1">
          <mxGeometry x="102.5" y="307.5" width="80" height="30" as="geometry" />
        </mxCell>
        <mxCell id="f7VWtB84ozHV4lPgb3XU-57" value="&lt;h1 style=&quot;margin-top: 0px;&quot;&gt;Work&lt;br&gt;Distribution&lt;br&gt;&lt;br&gt;&lt;/h1&gt;" style="text;html=1;whiteSpace=wrap;overflow=hidden;rounded=0;" parent="1" vertex="1">
          <mxGeometry x="630" y="265" width="150" height="70" as="geometry" />
        </mxCell>
        <mxCell id="f7VWtB84ozHV4lPgb3XU-58" value="" style="ellipse;whiteSpace=wrap;html=1;aspect=fixed;fillColor=#EEFF03;" parent="1" vertex="1">
          <mxGeometry x="652" y="341" width="18" height="18" as="geometry" />
        </mxCell>
        <mxCell id="f7VWtB84ozHV4lPgb3XU-60" value="" style="ellipse;whiteSpace=wrap;html=1;aspect=fixed;fillColor=#0000FF;" parent="1" vertex="1">
          <mxGeometry x="652" y="370.5" width="18" height="18" as="geometry" />
        </mxCell>
        <mxCell id="f7VWtB84ozHV4lPgb3XU-61" value="" style="ellipse;whiteSpace=wrap;html=1;aspect=fixed;fillColor=#FF0800;" parent="1" vertex="1">
          <mxGeometry x="652" y="400.5" width="18" height="18" as="geometry" />
        </mxCell>
        <mxCell id="f7VWtB84ozHV4lPgb3XU-62" value="Josh" style="text;strokeColor=none;fillColor=none;align=left;verticalAlign=middle;spacingLeft=4;spacingRight=4;overflow=hidden;points=[[0,0.5],[1,0.5]];portConstraint=eastwest;rotatable=0;whiteSpace=wrap;html=1;" parent="1" vertex="1">
          <mxGeometry x="680" y="335" width="80" height="30" as="geometry" />
        </mxCell>
        <mxCell id="f7VWtB84ozHV4lPgb3XU-63" value="Sri" style="text;strokeColor=none;fillColor=none;align=left;verticalAlign=middle;spacingLeft=4;spacingRight=4;overflow=hidden;points=[[0,0.5],[1,0.5]];portConstraint=eastwest;rotatable=0;whiteSpace=wrap;html=1;" parent="1" vertex="1">
          <mxGeometry x="680" y="365" width="80" height="30" as="geometry" />
        </mxCell>
        <mxCell id="f7VWtB84ozHV4lPgb3XU-64" value="Juni" style="text;strokeColor=none;fillColor=none;align=left;verticalAlign=middle;spacingLeft=4;spacingRight=4;overflow=hidden;points=[[0,0.5],[1,0.5]];portConstraint=eastwest;rotatable=0;whiteSpace=wrap;html=1;" parent="1" vertex="1">
          <mxGeometry x="680" y="395" width="80" height="30" as="geometry" />
        </mxCell>
        <mxCell id="f7VWtB84ozHV4lPgb3XU-66" value="" style="ellipse;whiteSpace=wrap;html=1;aspect=fixed;fillColor=#32FF24;" parent="1" vertex="1">
          <mxGeometry x="652" y="429" width="18" height="18" as="geometry" />
        </mxCell>
        <mxCell id="f7VWtB84ozHV4lPgb3XU-67" value="Kevin" style="text;strokeColor=none;fillColor=none;align=left;verticalAlign=middle;spacingLeft=4;spacingRight=4;overflow=hidden;points=[[0,0.5],[1,0.5]];portConstraint=eastwest;rotatable=0;whiteSpace=wrap;html=1;" parent="1" vertex="1">
          <mxGeometry x="680" y="423" width="80" height="30" as="geometry" />
        </mxCell>
        <mxCell id="f7VWtB84ozHV4lPgb3XU-68" value="" style="shape=image;imageAspect=0;aspect=fixed;verticalLabelPosition=bottom;verticalAlign=top;image=https://www.vectorico.com/wp-content/uploads/2019/01/usb-symbol.png;" parent="1" vertex="1">
          <mxGeometry x="350" y="526" width="40" height="40" as="geometry" />
        </mxCell>
        <mxCell id="JzMAzsVcDjOF4naoMmUs-1" value="&lt;b&gt;I2S&lt;/b&gt;&lt;div&gt;Bi-directional&lt;br&gt;real-time&lt;/div&gt;&lt;div&gt;audio data&lt;br&gt;&lt;/div&gt;" style="shape=flexArrow;endArrow=classic;startArrow=classic;html=1;rounded=0;exitX=0.5;exitY=0;exitDx=0;exitDy=0;fillColor=#FFFFFF;entryX=0.5;entryY=1;entryDx=0;entryDy=0;" parent="1" edge="1">
          <mxGeometry width="100" height="100" relative="1" as="geometry">
            <mxPoint x="360" y="359" as="sourcePoint" />
            <mxPoint x="360" y="159" as="targetPoint" />
            <Array as="points" />
            <mxPoint as="offset" />
          </mxGeometry>
        </mxCell>
      </root>
    </mxGraphModel>
  </diagram>
</mxfile>
